<?xml version="1.0" encoding="UTF-8" standalone="no"?>
<!DOCTYPE svg PUBLIC "-//W3C//DTD SVG 1.1//EN" "http://www.w3.org/Graphics/SVG/1.1/DTD/svg11.dtd">
<svg width="100%" height="100%" viewBox="0 0 100 100" version="1.1" xmlns="http://www.w3.org/2000/svg" xmlns:xlink="http://www.w3.org/1999/xlink" xml:space="preserve" xmlns:serif="http://www.serif.com/" style="fill-rule:evenodd;clip-rule:evenodd;stroke-linejoin:round;stroke-miterlimit:2;">
    <g transform="matrix(1,0,0,1,-2.01692,-599.285)">
        <g transform="matrix(0.368271,0,0,1.34993,-34.3819,598.387)">
            <rect id="logo-final" serif:id="logo final" x="98.837" y="0.665" width="271.539" height="74.078" style="fill:none;"/>
            <g id="logo-final1" serif:id="logo final">
                <g transform="matrix(1.77349e-16,0.790139,-2.89632,4.83821e-17,500.872,-64.1756)">
                    <path d="M102.466,80.535C101.189,78.453 100.447,76.053 100.356,73.55L100.344,73.025C100.344,68.655 102.43,64.548 105.958,61.97C105.983,61.952 106.007,61.934 106.032,61.917C109.175,59.659 112.538,57.96 116.12,56.809C120.023,55.554 124.293,54.893 128.939,54.893C133.585,54.893 137.855,55.554 141.758,56.809C145.106,57.884 148.262,59.439 151.224,61.484C151.244,61.498 151.264,61.512 151.285,61.527C155.115,64.209 157.426,68.557 157.518,73.17C157.53,73.505 157.534,73.854 157.534,74.211C157.534,74.211 157.534,74.212 157.534,74.212C157.534,76.669 156.87,79.036 155.665,81.089C156.463,82.909 157.017,84.94 157.264,87.202C157.403,88.477 157.49,89.817 157.521,91.223L157.534,91.471C157.534,91.626 157.533,91.78 157.531,91.903C157.533,92.065 157.534,92.229 157.534,92.393C157.534,92.662 157.524,92.929 157.506,93.188C157.466,94.389 157.385,95.544 157.264,96.654C156.992,99.155 156.345,101.371 155.412,103.33C156.571,105.22 157.29,107.372 157.481,109.625L157.481,109.625C157.517,110.026 157.534,110.43 157.534,110.84C157.534,115.209 155.448,119.317 151.92,121.895C151.896,121.913 151.871,121.93 151.846,121.948C148.703,124.206 145.34,125.905 141.758,127.056C137.855,128.31 133.585,128.971 128.939,128.971C124.293,128.971 120.023,128.31 116.12,127.056C112.773,125.98 109.616,124.425 106.654,122.381C106.634,122.367 106.614,122.352 106.593,122.338C102.762,119.655 100.451,115.306 100.36,110.695C100.348,110.357 100.344,110.005 100.344,109.643C100.344,109.643 100.344,109.643 100.344,109.642C100.345,107.187 101.007,104.823 102.211,102.77C101.415,100.951 100.86,98.919 100.614,96.654C100.493,95.546 100.412,94.392 100.373,93.205C100.354,92.937 100.344,92.666 100.344,92.393C100.344,92.238 100.345,92.083 100.347,91.96C100.345,91.798 100.344,91.635 100.344,91.471L100.357,91.223C100.388,89.817 100.475,88.477 100.614,87.202C100.887,84.707 101.533,82.494 102.466,80.535ZM128.939,117.721C125.546,117.721 122.424,117.263 119.574,116.347C117.191,115.581 114.95,114.458 112.852,112.978C112.092,112.435 111.641,111.558 111.641,110.624C111.633,110.336 111.633,110.02 111.633,109.69C111.633,108.897 112.041,108.16 112.713,107.738C113.385,107.316 114.226,107.27 114.941,107.614C114.941,107.614 114.942,107.614 114.942,107.614C116.243,108.241 117.666,108.786 119.211,109.249C120.757,109.712 122.359,110.074 124.018,110.335C125.677,110.596 127.318,110.726 128.939,110.726C131.102,110.726 133.285,110.501 135.486,110.051C137.688,109.6 139.73,108.985 141.611,108.206C141.803,108.126 141.991,108.046 142.176,107.964C143.073,107.57 144.108,107.654 144.928,108.19C145.748,108.725 146.242,109.638 146.242,110.617C146.245,110.62 146.245,110.622 146.245,110.624C146.245,111.561 145.793,112.44 145.031,112.985C142.928,114.458 140.687,115.581 138.305,116.347C135.454,117.263 132.332,117.721 128.939,117.721ZM111.643,91.471C111.666,90.407 111.731,89.392 111.836,88.427C111.972,87.186 112.287,86.091 112.781,85.143C113.275,84.195 114.048,83.45 115.1,82.907C116.153,82.365 117.596,82.093 119.43,82.093L122.021,82.093C123.397,82.093 124.4,81.782 125.03,81.159C125.284,80.907 125.487,80.577 125.638,80.168C126.173,78.78 127.514,77.87 129.002,77.889C129.002,77.882 129.002,77.882 129.003,77.882C130.445,77.9 131.729,78.798 132.24,80.147C132.385,80.567 132.59,80.903 132.848,81.159C133.478,81.782 134.481,82.093 135.857,82.093L138.449,82.093C140.282,82.093 141.725,82.365 142.778,82.907C143.83,83.45 144.603,84.195 145.097,85.143C145.592,86.091 145.906,87.186 146.042,88.427C146.147,89.392 146.212,90.407 146.235,91.471L146.245,91.471C146.245,91.626 146.244,91.779 146.243,91.931C146.244,92.084 146.245,92.238 146.245,92.393L146.235,92.393C146.212,93.452 146.147,94.465 146.042,95.433C145.906,96.677 145.592,97.773 145.097,98.721C144.603,99.669 143.83,100.415 142.778,100.957C141.725,101.5 140.282,101.771 138.449,101.771L135.857,101.771C134.481,101.771 133.478,102.081 132.848,102.701C132.685,102.862 132.541,103.169 132.419,103.535C131.919,105.02 130.526,106.02 128.959,106.02C128.959,106.021 128.959,106.021 128.958,106.021C127.482,106.021 126.161,105.105 125.642,103.723C125.497,103.297 125.29,102.957 125.03,102.701C124.4,102.081 123.397,101.771 122.021,101.771L119.43,101.771C117.596,101.771 116.153,101.5 115.1,100.957C114.048,100.415 113.275,99.669 112.781,98.721C112.287,97.773 111.972,96.677 111.836,95.433C111.731,94.465 111.667,93.452 111.643,92.393L111.633,92.393C111.633,92.238 111.634,92.084 111.636,91.931C111.634,91.779 111.633,91.626 111.633,91.471L111.643,91.471ZM141.306,91.932C141.273,92.796 141.144,93.46 140.918,93.927C140.654,94.473 140.249,94.837 139.706,95.019C139.162,95.201 138.48,95.292 137.658,95.292L134.144,95.292C133.452,95.292 132.786,95.434 132.146,95.717C131.505,96 130.934,96.521 130.432,97.28C129.931,98.04 129.533,99.124 129.238,100.532L129.236,100.541L128.642,100.541L128.64,100.532C128.345,99.124 127.947,98.04 127.446,97.28C126.944,96.521 126.373,96 125.733,95.717C125.092,95.434 124.426,95.292 123.734,95.292L120.22,95.292C119.391,95.292 118.706,95.201 118.165,95.019C117.624,94.837 117.222,94.473 116.959,93.927C116.734,93.46 116.605,92.796 116.572,91.932C116.605,91.069 116.734,90.404 116.959,89.938C117.222,89.392 117.624,89.027 118.165,88.845C118.706,88.663 119.391,88.572 120.22,88.572L123.734,88.572C124.426,88.572 125.092,88.431 125.733,88.148C126.373,87.865 126.944,87.344 127.446,86.585C127.947,85.825 128.345,84.741 128.64,83.333L128.642,83.323L129.236,83.323L129.238,83.333C129.533,84.741 129.931,85.825 130.432,86.585C130.934,87.344 131.505,87.865 132.146,88.148C132.786,88.431 133.452,88.572 134.144,88.572L137.658,88.572C138.48,88.572 139.162,88.663 139.706,88.845C140.249,89.027 140.654,89.392 140.918,89.938C141.144,90.404 141.273,91.069 141.306,91.932ZM128.939,66.182C132.332,66.182 135.454,66.64 138.305,67.556C140.687,68.322 142.928,69.445 145.026,70.925C145.786,71.468 146.237,72.344 146.237,73.278C146.245,73.567 146.245,73.883 146.245,74.212C146.245,75.006 145.837,75.743 145.165,76.165C144.493,76.586 143.652,76.633 142.938,76.289C142.937,76.289 142.936,76.289 142.936,76.289C141.635,75.662 140.212,75.117 138.667,74.654C137.121,74.191 135.519,73.829 133.86,73.568C132.201,73.307 130.561,73.177 128.939,73.177C126.776,73.177 124.593,73.402 122.392,73.852C120.19,74.302 118.148,74.917 116.267,75.697C116.075,75.777 115.887,75.857 115.702,75.939C114.805,76.333 113.771,76.248 112.95,75.713C112.13,75.178 111.636,74.265 111.636,73.285C111.633,73.283 111.633,73.281 111.633,73.278C111.633,72.342 112.085,71.463 112.847,70.918C114.95,69.445 117.191,68.322 119.574,67.556C122.424,66.64 125.546,66.182 128.939,66.182Z"/>
                </g>
            </g>
        </g>
    </g>
</svg>
