<?xml version="1.0" encoding="UTF-8" standalone="no"?><!DOCTYPE svg PUBLIC "-//W3C//DTD SVG 1.1//EN" "http://www.w3.org/Graphics/SVG/1.1/DTD/svg11.dtd"><svg width="288px" height="288px" version="1.1" xmlns="http://www.w3.org/2000/svg" xmlns:xlink="http://www.w3.org/1999/xlink" xml:space="preserve" xmlns:serif="http://www.serif.com/" style="fill-rule:evenodd;clip-rule:evenodd;stroke-linejoin:round;stroke-miterlimit:2;"><rect id="Logo-carré" serif:id="Logo carré" x="0" y="-0" width="287.513" height="287.513" style="fill:none;"/><g id="Logo-carré1" serif:id="Logo carré"><g><path d="M184.822,48.377C192.322,43.775 200.969,41.101 209.986,40.772L211.878,40.732C227.622,40.731 242.421,48.245 251.709,60.957C251.774,61.046 251.838,61.135 251.902,61.224C260.036,72.547 266.159,84.666 270.305,97.57C274.825,111.633 277.206,127.016 277.206,143.756C277.206,160.497 274.825,175.881 270.305,189.943C266.43,202.004 260.827,213.378 253.46,224.047C253.41,224.121 253.359,224.194 253.307,224.267C243.643,238.068 227.977,246.395 211.355,246.726C210.15,246.77 208.893,246.782 207.606,246.782C207.605,246.782 207.603,246.782 207.602,246.782C198.749,246.781 190.223,244.39 182.824,240.05C176.267,242.923 168.95,244.92 160.802,245.809C156.206,246.311 151.377,246.625 146.311,246.736L145.418,246.782C144.86,246.782 144.305,246.779 143.864,246.774C143.278,246.779 142.688,246.782 142.095,246.782C141.127,246.782 140.167,246.748 139.233,246.681C134.906,246.539 130.743,246.246 126.744,245.811C117.735,244.83 109.749,242.499 102.692,239.136C95.883,243.314 88.129,245.903 80.012,246.591L80.012,246.591C78.567,246.723 77.11,246.782 75.635,246.782C59.891,246.783 45.093,239.268 35.804,226.556C35.74,226.468 35.675,226.379 35.611,226.29C27.478,214.967 21.355,202.847 17.208,189.943C12.689,175.881 10.307,160.497 10.307,143.756C10.307,127.016 12.689,111.633 17.208,97.57C21.084,85.51 26.687,74.136 34.053,63.466C34.104,63.393 34.155,63.32 34.206,63.246C43.872,49.443 59.542,41.116 76.156,40.788C77.373,40.744 78.643,40.732 79.945,40.732C79.946,40.732 79.947,40.732 79.948,40.732C88.794,40.732 97.314,43.121 104.71,47.455C111.262,44.587 118.584,42.591 126.744,41.703C130.737,41.268 134.894,40.975 139.172,40.836C140.137,40.767 141.112,40.732 142.095,40.732C142.656,40.732 143.213,40.734 143.656,40.74C144.24,40.734 144.828,40.732 145.418,40.732L146.311,40.778C151.377,40.889 156.206,41.202 160.802,41.704C169.788,42.685 177.764,45.013 184.822,48.377ZM50.843,143.757C50.843,131.532 52.493,120.284 55.793,110.014C58.552,101.428 62.598,93.355 67.93,85.795C69.887,83.058 73.046,81.433 76.411,81.433C77.45,81.404 78.589,81.404 79.775,81.404C82.633,81.405 85.29,82.875 86.809,85.295C88.329,87.715 88.498,90.747 87.257,93.321C87.258,93.324 87.257,93.326 87.256,93.328C84.998,98.013 83.034,103.139 81.366,108.708C79.698,114.277 78.394,120.05 77.454,126.027C76.514,132.005 76.045,137.915 76.045,143.757C76.045,151.551 76.856,159.414 78.478,167.347C80.1,175.279 82.316,182.635 85.125,189.413C85.411,190.105 85.702,190.784 85.996,191.45C87.417,194.679 87.111,198.408 85.183,201.363C83.254,204.318 79.964,206.1 76.436,206.1C76.428,206.109 76.419,206.109 76.411,206.109C73.036,206.11 69.868,204.482 67.905,201.736C62.598,194.158 58.552,186.085 55.793,177.5C52.493,167.23 50.843,155.982 50.843,143.757ZM145.418,81.44C149.252,81.524 152.909,81.756 156.387,82.136C160.858,82.624 164.801,83.759 168.217,85.539C171.633,87.319 174.318,90.105 176.273,93.897C178.228,97.688 179.206,102.887 179.206,109.494L179.206,118.831C179.206,123.79 180.328,127.404 182.574,129.672C183.48,130.588 184.67,131.319 186.143,131.865C191.145,133.789 194.421,138.624 194.354,143.983C194.38,143.984 194.38,143.985 194.38,143.985C194.315,149.181 191.078,153.808 186.22,155.65C184.706,156.172 183.494,156.911 182.574,157.841C180.328,160.11 179.206,163.723 179.206,168.682L179.206,178.019C179.206,184.626 178.228,189.825 176.273,193.617C174.318,197.408 171.633,200.194 168.217,201.975C164.801,203.755 160.858,204.889 156.387,205.377C152.909,205.757 149.252,205.989 145.418,206.073L145.418,206.109C144.862,206.109 144.31,206.107 143.761,206.1C143.209,206.107 142.654,206.109 142.095,206.109L142.095,206.073C138.28,205.989 134.63,205.757 131.146,205.377C126.662,204.889 122.712,203.755 119.296,201.975C115.881,200.194 113.195,197.408 111.24,193.617C109.285,189.825 108.308,184.626 108.308,178.019L108.308,168.682C108.308,163.723 107.192,160.11 104.96,157.841C104.379,157.252 103.271,156.736 101.954,156.296C96.603,154.492 93.001,149.475 93.001,143.828C92.996,143.827 92.996,143.827 92.996,143.827C92.996,138.508 96.295,133.747 101.275,131.878C102.811,131.355 104.036,130.611 104.96,129.672C107.192,127.404 108.308,123.79 108.308,118.831L108.308,109.494C108.308,102.887 109.285,97.688 111.24,93.897C113.195,90.105 115.881,87.319 119.296,85.539C122.712,83.759 126.662,82.624 131.146,82.136C134.63,81.757 138.28,81.525 142.095,81.44L142.095,81.404C142.654,81.404 143.209,81.407 143.761,81.413C144.31,81.407 144.862,81.404 145.418,81.404L145.418,81.44ZM143.757,188.314C140.646,188.196 138.251,187.729 136.571,186.916C134.603,185.963 133.29,184.508 132.634,182.549C131.978,180.59 131.65,178.131 131.65,175.17L131.65,162.51C131.65,160.017 131.141,157.617 130.122,155.309C129.103,153.002 127.225,150.944 124.489,149.137C121.752,147.33 117.847,145.896 112.773,144.835L112.739,144.828L112.739,142.686L112.773,142.678C117.847,141.617 121.752,140.182 124.489,138.376C127.225,136.569 129.103,134.512 130.122,132.204C131.141,129.896 131.65,127.496 131.65,125.004L131.65,112.343C131.65,109.356 131.978,106.888 132.634,104.939C133.29,102.991 134.603,101.542 136.571,100.592C138.251,99.782 140.646,99.317 143.757,99.199C146.867,99.317 149.262,99.782 150.942,100.592C152.911,101.542 154.223,102.991 154.879,104.939C155.535,106.888 155.863,109.356 155.863,112.343L155.863,125.004C155.863,127.496 156.372,129.896 157.391,132.204C158.41,134.512 160.287,136.569 163.024,138.376C165.76,140.182 169.666,141.617 174.74,142.678L174.775,142.686L174.775,144.827L174.74,144.835C169.666,145.896 165.76,147.33 163.024,149.137C160.287,150.944 158.41,153.002 157.391,155.309C156.372,157.617 155.863,160.017 155.863,162.51L155.863,175.17C155.863,178.131 155.535,180.59 154.879,182.549C154.223,184.508 152.911,185.963 150.942,186.916C149.262,187.729 146.867,188.196 143.757,188.314ZM236.534,143.756C236.534,155.982 234.884,167.23 231.583,177.5C228.824,186.085 224.779,194.158 219.446,201.718C217.489,204.456 214.331,206.08 210.966,206.08C209.927,206.109 208.787,206.109 207.601,206.109C204.743,206.109 202.087,204.639 200.567,202.219C199.048,199.798 198.879,196.767 200.12,194.193C200.119,194.19 200.12,194.188 200.12,194.186C202.379,189.501 204.342,184.374 206.011,178.805C207.679,173.237 208.983,167.464 209.923,161.486C210.862,155.509 211.332,149.599 211.332,143.756C211.332,135.963 210.521,128.099 208.899,120.167C207.276,112.234 205.061,104.879 202.252,98.1C201.965,97.409 201.675,96.73 201.381,96.064C199.96,92.834 200.266,89.105 202.194,86.15C204.122,83.195 207.412,81.414 210.941,81.414C210.949,81.404 210.957,81.404 210.966,81.404C214.341,81.403 217.508,83.032 219.471,85.777C224.779,93.355 228.824,101.428 231.583,110.014C234.884,120.284 236.534,131.531 236.534,143.756Z" style="fill:rgb(5,4,23);"/></g></g></svg>