<?xml version="1.0" encoding="UTF-8" standalone="no"?><!DOCTYPE svg PUBLIC "-//W3C//DTD SVG 1.1//EN" "http://www.w3.org/Graphics/SVG/1.1/DTD/svg11.dtd"><svg width="300px" height="300px" version="1.1" xmlns="http://www.w3.org/2000/svg" xmlns:xlink="http://www.w3.org/1999/xlink" xml:space="preserve" xmlns:serif="http://www.serif.com/" style="fill-rule:evenodd;clip-rule:evenodd;stroke-linejoin:round;stroke-miterlimit:2;"><path id="Logo-complet" serif:id="Logo complet" d="M300,50C300,22.386 277.614,0 250,-0L50,-0C22.386,0 0,22.386 -0,50L0,250C0,277.614 22.386,300 50,300L250,300C277.614,300 300,277.614 300,250L300,50Z" style="fill:rgb(255,185,236);"/><clipPath id="_clip1"><path id="Logo-complet1" serif:id="Logo complet" d="M300,50C300,22.386 277.614,0 250,-0L50,-0C22.386,0 0,22.386 -0,50L0,250C0,277.614 22.386,300 50,300L250,300C277.614,300 300,277.614 300,250L300,50Z"/></clipPath><g clip-path="url(#_clip1)"><path d="M119.549,220.726C113.988,224.139 107.576,226.122 100.889,226.366L99.486,226.396C87.812,226.397 76.838,220.824 69.951,211.398C69.903,211.332 69.855,211.266 69.807,211.2C63.776,202.804 59.236,193.817 56.161,184.249C52.81,173.821 51.044,162.413 51.044,150C51.044,137.587 52.81,126.179 56.161,115.751C59.035,106.808 63.189,98.374 68.652,90.463C68.69,90.408 68.727,90.354 68.765,90.299C75.931,80.066 87.548,73.891 99.874,73.646C100.768,73.613 101.699,73.604 102.654,73.604C102.655,73.604 102.656,73.604 102.657,73.604C109.222,73.605 115.544,75.378 121.031,78.596C125.893,76.466 131.319,74.985 137.361,74.325C140.768,73.953 144.35,73.721 148.106,73.638L148.768,73.604C149.182,73.604 149.594,73.606 149.921,73.61C150.355,73.606 150.792,73.604 151.232,73.604C151.95,73.604 152.662,73.629 153.354,73.679C156.563,73.784 159.65,74.001 162.615,74.324C169.296,75.051 175.218,76.78 180.451,79.274C185.5,76.176 191.249,74.256 197.269,73.746L197.269,73.746C198.34,73.648 199.42,73.604 200.514,73.604C212.188,73.604 223.162,79.176 230.049,88.602C230.097,88.668 230.145,88.734 230.193,88.8C236.224,97.196 240.764,106.183 243.839,115.751C247.19,126.179 248.956,137.587 248.956,150C248.956,162.413 247.19,173.821 243.839,184.249C240.965,193.192 236.811,201.626 231.348,209.537C231.31,209.592 231.273,209.646 231.235,209.701C224.067,219.936 212.448,226.111 200.127,226.354C199.225,226.387 198.284,226.396 197.318,226.396C197.317,226.396 197.317,226.396 197.316,226.396C190.756,226.395 184.439,224.624 178.954,221.41C174.096,223.537 168.667,225.017 162.615,225.676C159.654,225.998 156.572,226.215 153.4,226.319C152.684,226.37 151.961,226.396 151.232,226.396C150.817,226.396 150.403,226.394 150.074,226.39C149.641,226.394 149.206,226.396 148.768,226.396L148.106,226.362C144.35,226.279 140.768,226.047 137.361,225.675C130.697,224.947 124.783,223.221 119.549,220.726ZM218.898,150C218.898,159.065 217.675,167.406 215.227,175.021C213.181,181.388 210.181,187.374 206.227,192.98C204.776,195.01 202.434,196.215 199.939,196.215C199.168,196.236 198.323,196.236 197.444,196.236C195.325,196.235 193.355,195.146 192.228,193.351C191.101,191.556 190.976,189.308 191.896,187.4C191.895,187.397 191.896,187.396 191.897,187.395C193.571,183.92 195.027,180.119 196.264,175.99C197.502,171.86 198.468,167.579 199.165,163.147C199.862,158.714 200.21,154.332 200.21,150C200.21,144.22 199.609,138.39 198.406,132.507C197.203,126.625 195.56,121.171 193.477,116.144C193.265,115.632 193.049,115.128 192.831,114.634C191.778,112.24 192.004,109.475 193.434,107.283C194.864,105.092 197.304,103.771 199.92,103.771C199.926,103.764 199.933,103.764 199.939,103.764C202.441,103.763 204.79,104.971 206.246,107.007C210.181,112.626 213.181,118.612 215.227,124.979C217.675,132.594 218.898,140.934 218.898,150ZM148.768,196.209C145.925,196.147 143.214,195.975 140.634,195.693C137.319,195.331 134.395,194.49 131.862,193.17C129.329,191.85 127.338,189.784 125.888,186.972C124.439,184.161 123.714,180.306 123.714,175.407L123.714,168.483C123.714,164.806 122.881,162.126 121.216,160.444C120.544,159.765 119.662,159.223 118.569,158.818C114.86,157.391 112.431,153.806 112.481,149.832C112.461,149.831 112.461,149.831 112.461,149.83C112.51,145.978 114.91,142.547 118.513,141.181C119.635,140.794 120.534,140.245 121.216,139.556C122.881,137.874 123.714,135.194 123.714,131.518L123.714,124.593C123.714,119.694 124.439,115.839 125.888,113.028C127.338,110.216 129.329,108.15 131.862,106.83C134.395,105.51 137.319,104.669 140.634,104.307C143.214,104.025 145.925,103.853 148.768,103.791L148.768,103.764C149.18,103.764 149.59,103.766 149.997,103.771C150.406,103.766 150.818,103.764 151.232,103.764L151.232,103.791C154.061,103.853 156.768,104.025 159.351,104.307C162.676,104.669 165.605,105.51 168.138,106.83C170.671,108.15 172.662,110.216 174.112,113.028C175.561,115.839 176.286,119.694 176.286,124.593L176.286,131.518C176.286,135.194 177.114,137.874 178.769,139.556C179.199,139.993 180.021,140.376 180.998,140.701C184.965,142.04 187.637,145.76 187.637,149.947C187.64,149.948 187.64,149.948 187.64,149.948C187.64,153.892 185.194,157.423 181.501,158.808C180.362,159.196 179.454,159.748 178.769,160.444C177.114,162.126 176.286,164.806 176.286,168.483L176.286,175.407C176.286,180.306 175.561,184.161 174.112,186.972C172.662,189.784 170.671,191.85 168.138,193.17C165.605,194.49 162.676,195.331 159.351,195.693C156.768,195.975 154.061,196.147 151.232,196.209L151.232,196.236C150.818,196.236 150.406,196.234 149.997,196.229C149.59,196.234 149.18,196.236 148.768,196.236L148.768,196.209ZM150,116.959C152.307,117.047 154.083,117.393 155.329,117.996C156.788,118.703 157.761,119.782 158.247,121.235C158.734,122.687 158.977,124.511 158.977,126.706L158.977,136.094C158.977,137.942 159.355,139.722 160.111,141.433C160.866,143.145 162.259,144.67 164.288,146.01C166.317,147.35 169.213,148.414 172.975,149.201L173.001,149.206L173.001,150.794L172.975,150.8C169.213,151.587 166.317,152.65 164.288,153.99C162.259,155.33 160.866,156.855 160.111,158.567C159.355,160.278 158.977,162.058 158.977,163.906L158.977,173.294C158.977,175.509 158.734,177.339 158.247,178.784C157.761,180.229 156.788,181.303 155.329,182.007C154.083,182.608 152.307,182.953 150,183.041C147.694,182.953 145.918,182.608 144.672,182.007C143.212,181.303 142.239,180.229 141.753,178.784C141.266,177.339 141.023,175.509 141.023,173.294L141.023,163.906C141.023,162.058 140.645,160.278 139.89,158.567C139.134,156.855 137.742,155.33 135.713,153.99C133.684,152.65 130.788,151.587 127.025,150.8L126.999,150.794L126.999,149.206L127.025,149.201C130.788,148.414 133.684,147.35 135.713,146.01C137.742,144.67 139.134,143.145 139.89,141.433C140.645,139.722 141.023,137.942 141.023,136.094L141.023,126.706C141.023,124.511 141.266,122.687 141.753,121.235C142.239,119.782 143.212,118.703 144.672,117.996C145.918,117.393 147.694,117.047 150,116.959ZM81.203,150C81.203,140.935 82.427,132.594 84.874,124.979C86.92,118.612 89.92,112.626 93.874,107.02C95.326,104.99 97.667,103.785 100.163,103.785C100.933,103.764 101.778,103.764 102.658,103.764C104.777,103.765 106.747,104.854 107.874,106.649C109,108.444 109.126,110.692 108.205,112.6C108.206,112.603 108.206,112.604 108.205,112.605C106.53,116.08 105.074,119.881 103.837,124.01C102.6,128.14 101.633,132.421 100.936,136.853C100.24,141.286 99.891,145.668 99.891,150C99.891,155.78 100.493,161.61 101.696,167.493C102.899,173.375 104.541,178.829 106.625,183.856C106.837,184.368 107.052,184.872 107.27,185.366C108.324,187.76 108.097,190.525 106.667,192.717C105.238,194.908 102.798,196.229 100.181,196.229C100.175,196.236 100.169,196.236 100.163,196.236C97.66,196.237 95.311,195.029 93.856,192.993C89.92,187.374 86.92,181.388 84.874,175.021C82.427,167.406 81.203,159.066 81.203,150Z" style="fill:rgb(56,0,41);"/></g></svg>