<?xml version="1.0" encoding="UTF-8" standalone="no"?>
<!DOCTYPE svg PUBLIC "-//W3C//DTD SVG 1.1//EN" "http://www.w3.org/Graphics/SVG/1.1/DTD/svg11.dtd">
<svg width="100%" height="100%" viewBox="0 0 180 83" version="1.1" xmlns="http://www.w3.org/2000/svg" xmlns:xlink="http://www.w3.org/1999/xlink" xml:space="preserve" xmlns:serif="http://www.serif.com/" style="fill-rule:evenodd;clip-rule:evenodd;stroke-linejoin:round;stroke-miterlimit:2;">
    <g transform="matrix(1,0,0,1,-485,-894)">
        <g transform="matrix(1,0,0,1,0,726.259)">
            <g transform="matrix(1,0,0,1,30.616,-336.208)">
                <g transform="matrix(0.701236,0,0,0.701236,213.626,173.836)">
                    <g transform="matrix(1.42605,0,0,1.42605,-348.303,-804.132)">
                        <path d="M547.703,967.359C545.626,969.368 543.252,971.07 540.583,972.465C535.413,975.166 529.493,976.517 522.824,976.517C515.379,976.517 508.839,974.869 503.204,971.573C497.569,968.277 493.181,963.586 490.04,957.498C486.899,951.41 485.329,944.179 485.329,935.803C485.329,929.367 486.266,923.622 488.14,918.568C490.014,913.514 492.644,909.23 496.03,905.714C499.417,902.199 503.359,899.523 507.857,897.688C512.355,895.853 517.227,894.935 522.475,894.935C526.973,894.935 531.16,895.588 535.038,896.893C538.915,898.198 542.36,900.04 545.371,902.418C548.383,904.797 550.845,907.621 552.758,910.891C554.656,914.135 555.879,917.703 556.428,921.596L556.393,921.635L556.345,921.689L539.381,921.689C538.838,919.802 538.075,918.129 537.093,916.668C536.111,915.208 534.915,913.967 533.506,912.946C532.097,911.925 530.495,911.143 528.698,910.6C526.902,910.057 524.918,909.786 522.746,909.786C518.688,909.786 515.127,910.794 512.064,912.81C509.001,914.826 506.616,917.754 504.91,921.593C503.204,925.431 502.351,930.117 502.351,935.648C502.351,941.18 503.191,945.885 504.871,949.762C506.551,953.64 508.929,956.593 512.006,958.622C515.082,960.652 518.714,961.666 522.901,961.666C526.701,961.666 529.952,960.988 532.653,959.631C534.85,958.527 536.629,957.051 537.988,955.203C538.501,955.89 539.12,956.566 539.855,957.206C541.194,958.373 543.017,959.475 544.888,960.348C545.486,962.807 546.437,965.172 547.703,967.359ZM548.434,953.933L548.442,953.936L548.407,953.923L548.434,953.933ZM548.266,953.87L548.276,953.874L548.238,953.859L548.266,953.87ZM548.101,953.803L548.112,953.807L548.072,953.79L548.101,953.803ZM547.938,953.732L547.95,953.737L547.908,953.718L547.938,953.732ZM547.776,953.657L547.789,953.663L547.747,953.642L547.776,953.657ZM547.617,953.579L547.631,953.585L547.588,953.563L547.617,953.579ZM547.46,953.496L547.475,953.504L547.432,953.48L547.46,953.496ZM547.305,953.41L547.32,953.419L547.278,953.394L547.305,953.41ZM547.153,953.321L547.168,953.33L547.127,953.305L547.153,953.321ZM547.003,953.228L547.018,953.237L546.978,953.212L547.003,953.228ZM543.716,948.37L543.743,948.507L543.712,948.348L543.716,948.37ZM543.684,948.189L543.71,948.338L543.681,948.168L543.684,948.189ZM543.651,947.952L543.616,947.623C543.628,947.76 543.628,947.755 543.643,947.896L543.651,947.952L543.654,947.976L543.681,948.166L543.651,947.952ZM543.604,947.451L543.608,947.505L543.603,947.44L543.604,947.451ZM543.595,947.264L543.602,947.416L543.595,947.256L543.595,947.264ZM543.591,947.075L543.593,947.167L543.591,947.072L543.591,947.075ZM543.642,946.142L543.642,946.146L543.648,946.1L543.642,946.142ZM543.666,945.96L543.665,945.966L543.676,945.894L543.666,945.96ZM543.694,945.778L543.693,945.789L543.71,945.695L543.694,945.778ZM543.732,945.575L543.732,945.575L543.727,945.598L543.724,945.613L543.732,945.575ZM549.083,932.934C548.087,935.113 547.208,937.448 546.433,939.983C543.454,940.406 541.528,941.17 540.362,941.88C538.57,942.972 537.421,944.232 536.742,945.575L523.948,945.575L523.948,932.934L549.083,932.934ZM543.764,945.42L543.76,945.439L543.789,945.314L543.764,945.42ZM543.805,945.243L543.8,945.266L543.835,945.13L543.805,945.243ZM543.851,945.068L543.844,945.096L543.885,944.95L543.851,945.068ZM543.901,944.895L543.892,944.926L543.939,944.773L543.901,944.895ZM543.955,944.723L543.943,944.759L543.997,944.6L543.955,944.723ZM544.013,944.554L543.999,944.593L544.058,944.43L544.013,944.554ZM544.858,942.886C544.696,943.125 544.547,943.374 544.414,943.631C544.28,943.889 544.161,944.155 544.058,944.429C544.264,943.882 544.533,943.364 544.858,942.886ZM544.901,942.823L544.859,942.885L544.956,942.746L544.901,942.823ZM545.003,942.679L544.959,942.741L545.056,942.608L545.003,942.679ZM545.108,942.538L545.063,942.599L545.16,942.472L545.108,942.538ZM545.217,942.4L545.17,942.46L545.267,942.339L545.217,942.4ZM545.329,942.264L545.28,942.323L545.378,942.208L545.329,942.264ZM545.444,942.132L545.394,942.189L545.491,942.08L545.444,942.132ZM545.562,942.001L545.512,942.057L545.607,941.954L545.562,942.001ZM545.683,941.874L545.632,941.928L545.726,941.831L545.683,941.874ZM545.808,941.75L545.755,941.802L545.849,941.711L545.808,941.75ZM545.935,941.629L545.882,941.679L545.957,941.608L545.935,941.629Z" style="fill:rgb(39,39,39);fill-rule:nonzero;"/>
                    </g>
                    <g id="path5142" transform="matrix(0.721059,0,0,0.721059,83.7327,121.65)">
                        <path d="M490.46,590.089C492.887,589.932 492.933,589.919 493.068,589.34C496.145,576.066 500.403,565.708 506.445,556.8C515.759,543.066 528.966,534.114 542.987,532.029C546.036,531.576 552.883,531.707 555.362,532.266C567.011,534.893 573.12,542.518 572.496,553.65C571.49,571.585 554.217,588.082 525.85,598.2L522.212,599.497L522.052,601.629C521.82,604.723 522.069,612.055 522.48,614.29C524.426,624.844 529.829,631.431 538.6,633.942C549.4,637.035 564.525,632.959 578.537,623.18C582.167,620.647 581.999,620.908 580.999,619.345C579.775,617.431 577.67,612.939 576.763,610.306C576.329,609.044 575.614,606.563 575.174,604.793C570.317,585.237 573.946,567.656 586.08,551.962C588.361,549.012 594.83,542.589 598.258,539.871C601.754,537.099 605.559,534.546 608.218,533.19C614.239,530.12 620.472,528.561 626.716,528.564C640.832,528.569 651.201,536.367 653.134,548.428C653.552,551.038 653.293,556.188 652.593,559.162C651.203,565.076 648.051,571.819 643.285,579.075C638.622,586.173 633.725,592.078 626.472,599.347C620.945,604.886 617.788,607.755 612.9,611.678C610.57,613.548 610.16,613.97 610.277,614.372C610.57,615.372 612.716,619.021 614.077,620.834C618.763,627.077 625.388,631.03 633.547,632.452C636.607,632.985 643.784,632.971 647.387,632.423C659.363,630.606 672.526,624.959 686.65,615.578C690.042,613.325 694.15,610.305 701.725,604.494C709.248,598.724 715.035,595.752 715.556,597.393C715.863,598.36 714.889,600.512 712.645,603.822C702.305,619.072 680.844,633.389 658.718,639.797C649.594,642.44 641.606,643.608 632.65,643.608C627.025,643.608 624.492,643.413 619.712,642.613C608.837,640.794 598.294,636.177 590.103,629.649L588.394,628.286L582.903,631.022C569.296,637.8 556.974,641.665 544.337,643.118C541.113,643.489 532.369,643.488 529.487,643.116C517.991,641.635 508.991,637.427 502.129,630.324C496.369,624.362 492.704,616.578 491.787,608.355C491.647,607.1 491.494,605.865 491.447,605.61C482.194,604.25 460.898,590.571 490.46,590.088L490.46,590.089ZM610.227,592.629C621.278,581.519 628.471,572.184 633.068,562.984C637.447,554.219 638.531,546.787 636.125,542.038C632.807,535.491 624.035,536.059 616.823,543.287C610.48,549.646 606.48,559.414 604.934,572.325C604.492,576.01 604.56,587.592 605.049,592.012C605.473,595.845 605.644,596.962 605.808,596.962C605.868,596.962 607.856,595.013 610.227,592.629L610.227,592.629ZM528.75,580.89C532.811,578.922 536.028,577.094 539.93,574.536C546.035,570.535 552.825,565.129 555.16,562.411C558.668,558.326 560.265,554.245 559.718,550.761C558.708,544.326 551.447,542.563 544.621,547.097C537.088,552.099 530.641,563.139 526.459,578.199C525.947,580.042 525.475,581.727 525.411,581.944C525.347,582.16 525.4,582.337 525.528,582.337C525.657,582.337 527.107,581.686 528.75,580.89L528.75,580.89Z" style="fill:rgb(20,130,255);fill-rule:nonzero;"/>
                    </g>
                </g>
            </g>
        </g>
    </g>
</svg>
